<?xml version="1.0" standalone="no"?>
<!DOCTYPE svg PUBLIC "-//W3C//DTD SVG 20010904//EN"
 "http://www.w3.org/TR/2001/REC-SVG-20010904/DTD/svg10.dtd">
<svg version="1.0" xmlns="http://www.w3.org/2000/svg"
 width="507.000000pt" height="400.000000pt" viewBox="0 0 507.000000 400.000000"
 preserveAspectRatio="xMidYMid meet">

<g transform="translate(0.000000,400.000000) scale(0.100000,-0.100000)"
fill="#000000" stroke="none">
<path d="M1512 3710 c-436 -159 -800 -294 -808 -301 -33 -27 -688 -926 -697
-956 -14 -44 6 -106 41 -131 15 -12 150 -51 317 -94 l290 -74 5 -715 c4 -515
8 -720 17 -734 31 -54 51 -61 1121 -385 830 -252 1070 -321 1095 -316 51 10
1549 839 1572 871 19 26 20 46 25 747 l5 721 265 127 c225 107 268 131 288
160 48 71 49 69 -316 587 -183 257 -341 474 -352 481 -12 7 -59 17 -104 22
-45 6 -499 71 -1008 145 -510 74 -934 135 -945 135 -10 -1 -375 -131 -811
-290z m1580 -77 c412 -59 748 -111 748 -114 0 -3 -222 -108 -493 -233 l-492
-227 -775 141 c-426 78 -782 144 -790 146 -11 4 1002 383 1050 394 3 0 341
-48 752 -107z m1424 -555 c123 -174 224 -321 224 -326 0 -14 -1331 -645 -1340
-635 -15 17 -351 736 -348 745 2 5 275 135 608 288 556 257 606 278 618 262 8
-9 114 -160 238 -334z m-2751 -79 c484 -88 881 -162 884 -164 7 -8 -524 -794
-534 -791 -5 1 -405 103 -888 227 -533 136 -876 228 -873 235 2 5 75 107 162
225 345 468 322 440 347 434 12 -3 418 -77 902 -166z m973 -2147 l-3 -550
-870 264 c-478 145 -887 269 -907 274 l-38 11 0 614 c0 485 3 615 13 615 6 0
284 -70 617 -155 332 -85 617 -155 633 -155 62 0 80 21 319 376 l233 346 3
-545 c1 -300 1 -793 0 -1095z m377 1263 c125 -265 129 -271 166 -291 57 -29
80 -21 514 186 230 110 425 200 432 200 19 0 19 -1173 1 -1188 -15 -11 -1194
-661 -1215 -669 -11 -4 -13 165 -13 998 0 551 2 1000 4 998 1 -2 52 -107 111
-234z"/>
</g>
</svg>
